<svg xmlns="http://www.w3.org/2000/svg" xmlns:xlink="http://www.w3.org/1999/xlink" version="1.1" x="0px" y="0px" enable-background="new 0 0 96 96" xml:space="preserve" viewBox="29.42 4.51 37.16 86.74"><path d="M48,46.231c-6.119,0-11.097,4.978-11.097,11.097S41.881,68.424,48,68.424s11.097-4.978,11.097-11.097  S54.119,46.231,48,46.231z M45.007,56.299c0.235,0.278,1.247,0.278,2.646,0.278h0.694c4.285,0,4.428,0.505,4.428,5.103  c0,1.11-0.538,2.057-1.515,2.666c-0.669,0.417-1.55,0.662-2.511,0.728v1.703h-1.5v-1.744c-2.097-0.282-4.026-1.436-4.026-3.352h1.5  c0,1.15,1.829,1.922,3.537,1.922c0.875,0,1.659-0.188,2.207-0.529c0.544-0.339,0.808-0.794,0.808-1.393c0-1.736,0-2.99-0.283-3.325  c-0.235-0.278-1.246-0.278-2.646-0.278h-0.694c-4.286,0-4.429-0.505-4.429-5.104c0-1.11,0.538-2.057,1.515-2.666  c0.669-0.417,1.551-0.662,2.511-0.727v-1.704h1.5v1.745c2.097,0.282,4.026,1.436,4.026,3.351h-1.5c0-1.149-1.829-1.921-3.538-1.921  c-0.875,0-1.659,0.188-2.206,0.529c-0.544,0.339-0.808,0.794-0.808,1.393C44.724,54.71,44.724,55.965,45.007,56.299z" fill="#aa0000"/><path d="M65.83,11.542v-1.5c-4.11,0-7.306,0.56-9.799,1.427L48,4.507L29.421,20.613V91.25H66.58V20.613l-9.226-7.998  C59.565,11.959,62.335,11.542,65.83,11.542z M48,17.696c0.091,0,0.177,0.02,0.266,0.027c-0.985,1.955-1.016,3.525-1.016,3.567h1.5  c0-0.037,0.028-1.424,0.96-3.142c1.116,0.61,1.884,1.782,1.884,3.142c0,1.982-1.613,3.594-3.595,3.594  c-1.981,0-3.594-1.612-3.594-3.594S46.019,17.696,48,17.696z M60.597,57.328c0,6.946-5.651,12.597-12.597,12.597  s-12.597-5.651-12.597-12.597S41.054,44.731,48,44.731S60.597,50.382,60.597,57.328z" fill="#aa0000"/></svg>