<svg xmlns="http://www.w3.org/2000/svg" xmlns:xlink="http://www.w3.org/1999/xlink" xmlns:serif="http://www.serif.com/" version="1.1" xml:space="preserve" style="" x="0px" y="0px" fill-rule="evenodd" clip-rule="evenodd" stroke-linejoin="round" stroke-miterlimit="2" viewBox="4 3.5 23.99 24.5"><g transform="matrix(1,0,0,1,-384,-96)"><path d="M392.779,123.284L392.779,117.716C392.718,117.616 392.645,117.523 392.561,117.439C392.279,117.158 391.898,117 391.5,117L389.5,117C389.102,117 388.721,117.158 388.439,117.439C388.158,117.721 388,118.102 388,118.5C388,119.61 388,121.39 388,122.5C388,122.898 388.158,123.279 388.439,123.561C388.721,123.842 389.102,124 389.5,124L391.5,124C391.898,124 392.279,123.842 392.561,123.561C392.645,123.477 392.718,123.384 392.779,123.284ZM405.954,117.473L404,118.53L399.997,118.568C399.721,118.568 399.497,118.276 399.497,118C399.497,117.724 399.721,117.5 399.997,117.5C399.997,117.5 403.849,117.5 403.849,117.5L405.416,116.771C405.16,116.311 404.669,116 404.105,116C402.232,116 398.223,116 396.427,116C395.741,116 395.07,116.202 394.497,116.58L393.779,117.055L393.779,123L402.781,123C403.401,123 404.01,122.835 404.545,122.523L411.049,118.729C411.519,118.455 411.849,117.992 411.956,117.458C412.063,116.925 411.936,116.37 411.608,115.936C411.608,115.936 411.607,115.935 411.607,115.935C411.138,115.314 410.286,115.129 409.601,115.499L405.954,117.473ZM397.384,103.132C395.732,103.984 394.539,105.621 394.321,107.581C394.181,108.846 394.031,110.195 393.898,111.389C393.782,112.436 394.117,113.482 394.819,114.267C395.521,115.052 396.524,115.5 397.577,115.5C399.108,115.5 400.892,115.5 402.423,115.5C403.476,115.5 404.479,115.052 405.181,114.267C405.883,113.482 406.218,112.436 406.102,111.389L405.679,107.581C405.454,105.56 404.193,103.883 402.461,103.056L404.313,100.277C404.425,100.11 404.425,99.892 404.314,99.724C404.203,99.556 404.002,99.471 403.805,99.509C403.805,99.509 402.533,99.75 401.897,99.75C401.605,99.75 401.314,99.702 401.022,99.648L400.772,99.602C400.48,99.548 400.189,99.5 399.897,99.5C399.605,99.5 399.314,99.548 399.022,99.602L398.772,99.648C398.48,99.702 398.189,99.75 397.897,99.75C397.261,99.75 395.989,99.509 395.989,99.509C395.791,99.471 395.591,99.556 395.48,99.724C395.369,99.892 395.369,100.11 395.481,100.277L397.384,103.132ZM400.5,105.066L400.5,104.5C400.5,104.224 400.276,104 400,104C399.724,104 399.5,104.224 399.5,104.5L399.5,105.028C398.297,105.201 397.397,106.146 397.397,107.25C397.397,108.472 398.5,109.5 399.897,109.5C400.708,109.5 401.397,110.04 401.397,110.75C401.397,111.46 400.708,112 399.897,112C399.086,112 398.397,111.46 398.397,110.75C398.397,110.474 398.173,110.25 397.897,110.25C397.621,110.25 397.397,110.474 397.397,110.75C397.397,111.854 398.297,112.799 399.5,112.972L399.5,113.5C399.5,113.776 399.724,114 400,114C400.276,114 400.5,113.776 400.5,113.5L400.5,112.934C401.599,112.689 402.397,111.79 402.397,110.75C402.397,109.528 401.294,108.5 399.897,108.5C399.086,108.5 398.397,107.96 398.397,107.25C398.397,106.54 399.086,106 399.897,106C400.708,106 401.397,106.54 401.397,107.25C401.397,107.526 401.621,107.75 401.897,107.75C402.173,107.75 402.397,107.526 402.397,107.25C402.397,106.21 401.599,105.311 400.5,105.066Z" fill="#00aa00"/></g></svg>